<?xml version="1.0" encoding="utf-8"?>
<!-- Generator: Adobe Illustrator 17.0.0, SVG Export Plug-In . SVG Version: 6.00 Build 0)  -->
<!DOCTYPE svg PUBLIC "-//W3C//DTD SVG 1.1//EN" "http://www.w3.org/Graphics/SVG/1.1/DTD/svg11.dtd">
<svg version="1.1" id="Capa_1" xmlns="http://www.w3.org/2000/svg" xmlns:xlink="http://www.w3.org/1999/xlink" x="0px" y="0px"
	 width="25px" height="50px" viewBox="0 0 25 50" enable-background="new 0 0 25 50" xml:space="preserve">
<path id="Facebook_2_" fill="#FFFFFF" d="M3.944,6.626c0,0.472,0,2.577,0,2.577H2v3.151h1.944V21h3.997v-8.646h2.679
	c0,0,0.251-1.512,0.375-3.163c-0.352,0-3.039,0-3.039,0s0-1.833,0-2.154c0-0.321,0.433-0.755,0.867-0.755c0.431,0,1.337,0,2.177,0
	C11,5.851,11,4.368,11,3C9.88,3,8.6,3,8.039,3C3.846,3,3.944,6.154,3.944,6.626z"/>
<path fill="#FFFFFF" d="M20.666,29.895c-0.681,0.32-1.424,0.539-2.198,0.635c0.789-0.5,1.397-1.289,1.687-2.234
	c-0.743,0.463-1.564,0.799-2.434,0.979C17.021,28.491,16.03,28,14.924,28c-2.114,0-3.832,1.805-3.832,4.039
	c0,0.317,0.036,0.625,0.101,0.921c-3.18-0.168-6.008-1.779-7.895-4.22c-0.332,0.599-0.521,1.289-0.521,2.03
	c0,1.4,0.677,2.64,1.704,3.362c-0.631-0.021-1.215-0.201-1.733-0.504c0,0.016,0,0.032,0,0.049c0,1.956,1.317,3.592,3.071,3.96
	c-0.319,0.092-0.655,0.141-1.009,0.141c-0.244,0-0.485-0.027-0.72-0.072c0.489,1.605,1.905,2.772,3.579,2.806
	c-1.312,1.084-2.963,1.731-4.76,1.731c-0.304,0-0.612-0.02-0.907-0.057C3.693,43.329,5.707,44,7.871,44
	c7.05,0,10.897-6.157,10.897-11.494c0-0.179,0-0.351-0.008-0.524C19.507,31.416,20.156,30.704,20.666,29.895z"/>
</svg>
